<?xml version="1.0" encoding="UTF-8" standalone="no"?>
<svg
   xmlns:dc="http://purl.org/dc/elements/1.1/"
   xmlns:cc="http://creativecommons.org/ns#"
   xmlns:rdf="http://www.w3.org/1999/02/22-rdf-syntax-ns#"
   xmlns:svg="http://www.w3.org/2000/svg"
   xmlns="http://www.w3.org/2000/svg"
   xmlns:sodipodi="http://sodipodi.sourceforge.net/DTD/sodipodi-0.dtd"
   xmlns:inkscape="http://www.inkscape.org/namespaces/inkscape"
   width="201mm"
   height="201mm"
   viewBox="0 0 201 201"
   version="1.1"
   id="svg847"
   inkscape:version="1.0.2 (e86c870879, 2021-01-15, custom)"
   sodipodi:docname="CSS flex.svg">
  <defs
     id="defs841">
    <rect
       x="25.432366"
       y="48.233798"
       width="53.495667"
       height="18.416541"
       id="rect2066" />
    <rect
       x="39.662798"
       y="172.86993"
       width="56.240773"
       height="29.359271"
       id="rect2049" />
    <rect
       x="39.662798"
       y="172.86993"
       width="56.240773"
       height="29.359271"
       id="rect2078" />
    <rect
       x="39.662798"
       y="172.86993"
       width="56.240773"
       height="29.359271"
       id="rect2085" />
  </defs>
  <sodipodi:namedview
     id="base"
     pagecolor="#ffffff"
     bordercolor="#666666"
     borderopacity="1.0"
     inkscape:pageopacity="0.0"
     inkscape:pageshadow="2"
     inkscape:zoom="0.45254834"
     inkscape:cx="-31.656176"
     inkscape:cy="395.07083"
     inkscape:document-units="mm"
     inkscape:current-layer="layer1"
     inkscape:document-rotation="0"
     showgrid="true"
     inkscape:snap-grids="false"
     inkscape:window-width="1366"
     inkscape:window-height="705"
     inkscape:window-x="-8"
     inkscape:window-y="-8"
     inkscape:window-maximized="1"
     inkscape:object-nodes="true"
     inkscape:snap-intersection-paths="false"
     inkscape:snap-global="false">
    <inkscape:grid
       type="xygrid"
       id="grid1532" />
  </sodipodi:namedview>
  <metadata
     id="metadata844">
    <rdf:RDF>
      <cc:Work
         rdf:about="">
        <dc:format>image/svg+xml</dc:format>
        <dc:type
           rdf:resource="http://purl.org/dc/dcmitype/StillImage" />
        <dc:title />
      </cc:Work>
    </rdf:RDF>
  </metadata>
  <g
     inkscape:label="Capa 1"
     inkscape:groupmode="layer"
     id="layer1"
     style="opacity:0.999">
    <path
       id="path2062"
       style="fill:#b094ff;fill-opacity:1;stroke:none;stroke-width:0.999999px;stroke-linecap:butt;stroke-linejoin:miter;stroke-opacity:1"
       d="M 1.1054688 -2.2089844 L 1 759.5 L 274.23633 485.62305 L 274.23633 266.4707 L 309.34375 266.4707 L 309.34375 450.43164 L 343.22656 416.46875 C 343.11008 414.42871 343.04883 412.36341 343.04883 410.26758 C 343.04883 394.52558 346.32529 380.39764 352.87891 367.88477 C 359.61977 355.17007 368.88903 345.28052 380.68555 338.2168 C 392.48206 331.15308 405.77591 327.62109 420.56836 327.62109 C 424.21419 327.62109 427.76151 327.84109 431.20898 328.28125 L 757.31055 1.4140625 L 1.1054688 -2.2089844 z M 98.693359 279.18359 L 242.2168 279.18359 L 242.2168 312.18164 L 135.20508 312.18164 L 135.20508 376.66406 L 230.13867 376.66406 L 230.13867 409.96484 L 135.20508 409.96484 L 135.20508 491.0957 L 98.693359 491.0957 L 98.693359 279.18359 z "
       transform="scale(0.26458333)" />
    <path
       style="fill:none;stroke:#7250d1;stroke-width:15;stroke-linecap:butt;stroke-linejoin:miter;stroke-miterlimit:4;stroke-dasharray:none;stroke-opacity:1"
       d="M 7.5109451,201.02237 7.2760415,7.277075 201.00065,7.5416583"
       id="path843"
       sodipodi:nodetypes="ccc" />
    <path
       id="path2060"
       style="fill:#7250d1;fill-opacity:1;stroke:none;stroke-width:0.264583px;stroke-linecap:butt;stroke-linejoin:miter;stroke-opacity:1"
       d="M 200.6694,0.37413737 114.38836,86.857746 c 2.74191,0.350076 5.24658,1.226373 7.51427,2.628781 3.07162,1.815542 5.4495,4.405456 7.13393,7.769551 1.73398,3.310692 2.6014,7.155512 2.6014,11.534182 0,0.69418 -0.0497,1.68208 -0.14883,2.96364 h -31.13712 c 0.54496,3.1505 1.95646,5.6598 4.2354,7.52874 2.32849,1.81554 5.20225,2.72335 8.62066,2.72335 4.35972,0 7.95166,-1.54861 10.77557,-4.64571 l 4.97903,6.16758 c -1.78353,2.29613 -4.03807,4.03164 -6.7629,5.2064 -2.72482,1.17476 -5.79653,1.76216 -9.21494,1.76216 -4.35972,0 -8.19883,-0.9345 -11.51816,-2.80344 -3.319325,-1.86894 -5.895661,-4.45885 -7.728723,-7.76955 -1.549074,-2.92188 -2.424636,-6.16634 -2.628265,-9.73274 l -8.964827,8.98601 v 10.75904 h -9.288838 v -1.44798 L 0.56223953,200.95104 201.04354,200.93347 Z M 134.68428,87.163671 h 10.3296 l 9.73533,14.017229 9.7348,-14.017229 h 10.03246 l -14.86265,20.905699 15.53135,21.86637 h -10.47792 l -10.18129,-14.8177 -10.25518,14.8177 h -10.25519 l 15.45745,-21.70617 z m -23.11125,7.529256 c -2.97254,0 -5.49913,0.961204 -7.5799,2.883545 -2.03123,1.868943 -3.26965,4.378758 -3.71554,7.529258 h 22.51698 c -0.39634,-3.09711 -1.61041,-5.606917 -3.64164,-7.529258 -2.03123,-1.922341 -4.55782,-2.883545 -7.5799,-2.883545 z" />
    <text
       xml:space="preserve"
       id="text2064"
       style="fill:black;fill-opacity:1;line-height:1.25;stroke:none;font-family:sans-serif;font-style:normal;font-weight:normal;font-size:10.58333333px;white-space:pre;shape-inside:url(#rect2066);" />
    <g
       aria-label="CSS"
       id="text2072"
       style="font-style:normal;font-variant:normal;font-weight:600;font-stretch:normal;font-size:35.8194px;line-height:1.25;font-family:Montserrat;-inkscape-font-specification:'Montserrat Semi-Bold';letter-spacing:1.68744px;fill:#ebebeb;fill-opacity:1;stroke:#ebebeb;stroke-width:1.878;stroke-linecap:round;stroke-linejoin:round;stroke-miterlimit:4;stroke-dasharray:none;stroke-opacity:1">
      <path
         d="m 119.77246,181.82498 q -3.79686,0 -6.87733,-1.6477 -3.04464,-1.68351 -4.7998,-4.6207 -1.71933,-2.93719 -1.71933,-6.62659 0,-3.6894 1.75515,-6.62659 1.75515,-2.93719 4.7998,-4.58488 3.08047,-1.68351 6.87733,-1.68351 3.08047,0 5.62364,1.07458 2.54318,1.07458 4.29833,3.11629 l -3.00883,2.82973 q -2.72227,-2.93719 -6.69823,-2.93719 -2.57899,0 -4.6207,1.14622 -2.0417,1.1104 -3.18792,3.11629 -1.14623,2.00588 -1.14623,4.54906 0,2.54318 1.14623,4.54907 1.14622,2.00588 3.18792,3.1521 2.04171,1.1104 4.6207,1.1104 3.97596,0 6.69823,-2.97301 l 3.00883,2.86556 q -1.75515,2.0417 -4.33414,3.11628 -2.54318,1.07459 -5.62365,1.07459 z"
         style="font-style:normal;font-variant:normal;font-weight:600;font-stretch:normal;font-family:Montserrat;-inkscape-font-specification:'Montserrat Semi-Bold';fill:#ebebeb;fill-opacity:1;stroke:#ebebeb;stroke-width:1.878;stroke-linecap:round;stroke-linejoin:round;stroke-miterlimit:4;stroke-dasharray:none;stroke-opacity:1"
         id="path1442" />
      <path
         d="m 143.52457,181.82498 q -2.90137,0 -5.62365,-0.82385 -2.68645,-0.82385 -4.26251,-2.18498 l 1.61188,-3.61776 q 1.54023,1.21786 3.76103,2.00588 2.25662,0.75221 4.51325,0.75221 2.79391,0 4.15505,-0.89548 1.39695,-0.89549 1.39695,-2.36409 0,-1.07458 -0.78802,-1.75515 -0.75221,-0.71638 -1.93425,-1.1104 -1.18204,-0.39401 -3.22375,-0.89548 -2.86555,-0.68057 -4.65652,-1.36114 -1.75515,-0.68057 -3.04465,-2.11334 -1.25368,-1.4686 -1.25368,-3.94014 0,-2.07752 1.1104,-3.76104 1.14623,-1.71933 3.40285,-2.72227 2.29244,-1.00294 5.58782,-1.00294 2.29245,0 4.51325,0.57311 2.2208,0.57311 3.83267,1.64769 l -1.46859,3.61776 q -1.64769,-0.96712 -3.43866,-1.4686 -1.79097,-0.50147 -3.47449,-0.50147 -2.75809,0 -4.11923,0.93131 -1.32531,0.9313 -1.32531,2.47154 0,1.07458 0.7522,1.75515 0.78803,0.68056 1.97007,1.07458 1.18204,0.39401 3.22375,0.89548 2.79391,0.64475 4.58488,1.36114 1.79097,0.68057 3.04465,2.11334 1.2895,1.43278 1.2895,3.8685 0,2.07753 -1.14622,3.76104 -1.1104,1.68351 -3.40285,2.68645 -2.29244,1.00295 -5.58782,1.00295 z"
         style="font-style:normal;font-variant:normal;font-weight:600;font-stretch:normal;font-family:Montserrat;-inkscape-font-specification:'Montserrat Semi-Bold';fill:#ebebeb;fill-opacity:1;stroke:#ebebeb;stroke-width:1.878;stroke-linecap:round;stroke-linejoin:round;stroke-miterlimit:4;stroke-dasharray:none;stroke-opacity:1"
         id="path1444" />
      <path
         d="m 167.7424,181.82498 q -2.90137,0 -5.62365,-0.82385 -2.68645,-0.82385 -4.26251,-2.18498 l 1.61188,-3.61776 q 1.54023,1.21786 3.76103,2.00588 2.25663,0.75221 4.51325,0.75221 2.79391,0 4.15505,-0.89548 1.39696,-0.89549 1.39696,-2.36409 0,-1.07458 -0.78803,-1.75515 -0.75221,-0.71638 -1.93425,-1.1104 -1.18204,-0.39401 -3.22374,-0.89548 -2.86556,-0.68057 -4.65653,-1.36114 -1.75515,-0.68057 -3.04465,-2.11334 -1.25367,-1.4686 -1.25367,-3.94014 0,-2.07752 1.1104,-3.76104 1.14622,-1.71933 3.40284,-2.72227 2.29244,-1.00294 5.58783,-1.00294 2.29244,0 4.51324,0.57311 2.2208,0.57311 3.83268,1.64769 l -1.4686,3.61776 q -1.64769,-0.96712 -3.43866,-1.4686 -1.79097,-0.50147 -3.47448,-0.50147 -2.7581,0 -4.11923,0.93131 -1.32532,0.9313 -1.32532,2.47154 0,1.07458 0.75221,1.75515 0.78802,0.68056 1.97006,1.07458 1.18204,0.39401 3.22375,0.89548 2.79391,0.64475 4.58488,1.36114 1.79097,0.68057 3.04465,2.11334 1.2895,1.43278 1.2895,3.8685 0,2.07753 -1.14622,3.76104 -1.1104,1.68351 -3.40284,2.68645 -2.29245,1.00295 -5.58783,1.00295 z"
         style="font-style:normal;font-variant:normal;font-weight:600;font-stretch:normal;font-family:Montserrat;-inkscape-font-specification:'Montserrat Semi-Bold';fill:#ebebeb;fill-opacity:1;stroke:#ebebeb;stroke-width:1.878;stroke-linecap:round;stroke-linejoin:round;stroke-miterlimit:4;stroke-dasharray:none;stroke-opacity:1"
         id="path1446" />
    </g>
    <g
       aria-label="Flex"
       transform="matrix(2.9257227,0,0,3.1534457,-96.91335,-488.81472)"
       id="text2083"
       style="font-style:normal;font-variant:normal;font-weight:600;font-stretch:normal;font-size:10.5833px;line-height:1.25;font-family:Montserrat;-inkscape-font-specification:'Montserrat Semi-Bold';white-space:pre;shape-inside:url(#rect2085);fill:#ebebeb;fill-opacity:1;stroke:#ebebeb;stroke-width:0.658447;stroke-linecap:round;stroke-linejoin:round;stroke-miterlimit:4;stroke-dasharray:none;stroke-dashoffset:0;stroke-opacity:1">
      <path
         d="m 45.351709,181.20272 v 5.4102 h 8.5852 v 2.794 h -8.5852 v 6.8072 h -3.302 v -17.78 h 12.9794 v 2.7686 z"
         style="font-style:normal;font-variant:normal;font-weight:600;font-stretch:normal;font-size:25.4px;font-family:Montserrat;-inkscape-font-specification:'Montserrat Semi-Bold';fill:#ebebeb;fill-opacity:1;stroke:#ebebeb;stroke-width:0.658447;stroke-linecap:round;stroke-linejoin:round;stroke-miterlimit:4;stroke-dasharray:none;stroke-dashoffset:0;stroke-opacity:1"
         id="path1794" />
      <path
         d="m 57.924735,177.36739 3.174951,-7e-5 v 18.8468 l -3.174951,7e-5 z"
         style="font-style:normal;font-variant:normal;font-weight:600;font-stretch:normal;font-size:25.4px;font-family:Montserrat;-inkscape-font-specification:'Montserrat Semi-Bold';fill:#ebebeb;fill-opacity:1;stroke:#ebebeb;stroke-width:0.658447;stroke-linecap:round;stroke-linejoin:round;stroke-miterlimit:4;stroke-dasharray:none;stroke-dashoffset:0;stroke-opacity:1"
         id="path1796"
         sodipodi:nodetypes="ccccc" />
      <path
         d="m 78.016076,189.50852 q 0,0.3302 -0.0508,0.9398 h -10.6426 q 0.2794,1.4986 1.4478,2.3876 1.1938,0.8636 2.9464,0.8636 2.2352,0 3.683,-1.4732 l 1.7018,1.9558 q -0.9144,1.0922 -2.3114,1.651 -1.397,0.5588 -3.1496,0.5588 -2.2352,0 -3.937,-0.889 -1.7018,-0.889 -2.6416,-2.4638 -0.9144,-1.6002 -0.9144,-3.6068 0,-1.9812 0.889,-3.556 0.9144,-1.6002 2.5146,-2.4892 1.6002,-0.889 3.6068,-0.889 1.9812,0 3.5306,0.889 1.5748,0.8636 2.4384,2.4638 0.889,1.5748 0.889,3.6576 z m -6.858,-4.4704 q -1.524,0 -2.5908,0.9144 -1.0414,0.889 -1.27,2.3876 h 7.6962 q -0.2032,-1.4732 -1.2446,-2.3876 -1.0414,-0.9144 -2.5908,-0.9144 z"
         style="font-style:normal;font-variant:normal;font-weight:600;font-stretch:normal;font-size:25.4px;font-family:Montserrat;-inkscape-font-specification:'Montserrat Semi-Bold';fill:#ebebeb;fill-opacity:1;stroke:#ebebeb;stroke-width:0.658447;stroke-linecap:round;stroke-linejoin:round;stroke-miterlimit:4;stroke-dasharray:none;stroke-dashoffset:0;stroke-opacity:1"
         id="path1798" />
      <path
         d="m 89.319035,196.21412 -3.4798,-4.699 -3.5052,4.699 h -3.5052 l 5.2832,-6.8834 -5.0546,-6.6802 h 3.5306 l 3.3274,4.445 3.3274,-4.445 h 3.429 l -5.08,6.6294 5.3086,6.9342 z"
         style="font-style:normal;font-variant:normal;font-weight:600;font-stretch:normal;font-size:25.4px;font-family:Montserrat;-inkscape-font-specification:'Montserrat Semi-Bold';fill:#ebebeb;fill-opacity:1;stroke:#ebebeb;stroke-width:0.658447;stroke-linecap:round;stroke-linejoin:round;stroke-miterlimit:4;stroke-dasharray:none;stroke-dashoffset:0;stroke-opacity:1"
         id="path1800" />
    </g>
    <path
       style="fill:none;stroke:none;stroke-width:0.264583px;stroke-linecap:butt;stroke-linejoin:miter;stroke-opacity:1"
       d="M 200.37174,0.37413737 0.26458333,200.95104 0.29248862,-0.58446045 Z"
       id="path2088" />
  </g>
</svg>
